<?xml version="1.0" encoding="UTF-8" standalone="no"?>
<svg
   xmlns:dc="http://purl.org/dc/elements/1.1/"
   xmlns:cc="http://creativecommons.org/ns#"
   xmlns:rdf="http://www.w3.org/1999/02/22-rdf-syntax-ns#"
   xmlns:svg="http://www.w3.org/2000/svg"
   xmlns="http://www.w3.org/2000/svg"
   xmlns:sodipodi="http://sodipodi.sourceforge.net/DTD/sodipodi-0.dtd"
   xmlns:inkscape="http://www.inkscape.org/namespaces/inkscape"
   version="1.1"
   x="0px"
   y="0px"
   viewBox="0 0 55 55"
   enable-background="new 0 0 100 100"
   xml:space="preserve"
   id="svg2"
   inkscape:version="0.48.4 r9939"
   width="100%"
   height="100%"
   sodipodi:docname="noun_36416_cc.svg"><defs
     id="defs28" /><sodipodi:namedview
     pagecolor="#ffffff"
     bordercolor="#666666"
     borderopacity="1"
     objecttolerance="10"
     gridtolerance="10"
     guidetolerance="10"
     inkscape:pageopacity="0"
     inkscape:pageshadow="2"
     inkscape:window-width="1007"
     inkscape:window-height="674"
     id="namedview26"
     showgrid="false"
     fit-margin-top="0"
     fit-margin-left="0"
     fit-margin-right="0"
     fit-margin-bottom="0"
     inkscape:zoom="1.888"
     inkscape:cx="57.902543"
     inkscape:cy="-2.1610179"
     inkscape:window-x="0"
     inkscape:window-y="0"
     inkscape:window-maximized="0"
     inkscape:current-layer="svg2" /><rect
     style="fill:#ff4848;fill-opacity:1;stroke:#2f74d0;stroke-width:0;stroke-linecap:round;stroke-linejoin:round;stroke-miterlimit:4;stroke-opacity:1;stroke-dasharray:none;stroke-dashoffset:0"
     id="rect3007"
     width="55"
     height="55"
     x="-8.0263561e-008"
     y="0" /><g
     id="g4"
     transform="matrix(0.40001778,0,0,0.40001778,135.09446,22.011823)"><g
       id="g3793"
       transform="translate(-317.78248,-38.398717)"><path
         style="fill:none"
         inkscape:connector-curvature="0"
         id="path6"
         d="M 85.12,14.711 H 14.88 c -0.451,0 -0.82,0.434 -0.82,0.878 v 68.88 c 0,0.443 0.362,0.816 0.82,0.816 h 70.246 c 0.451,0 0.812,-0.431 0.812,-0.878 V 15.531 c 10e-4,-0.448 -0.361,-0.82 -0.818,-0.82 z M 59.58,30.23 h 16.08 v 5.967 H 59.58 V 30.23 z M 71.356,56.2 c 0,0.472 -0.103,0.929 -0.314,1.369 -0.205,0.444 -0.471,0.841 -0.792,1.196 -0.328,0.354 -0.71,0.635 -1.154,0.84 -0.437,0.205 -0.909,0.311 -1.414,0.311 -0.526,0 -1.025,-0.099 -1.476,-0.287 -0.465,-0.194 -0.861,-0.457 -1.195,-0.799 -0.342,-0.338 -0.615,-0.734 -0.82,-1.192 -0.205,-0.457 -0.307,-0.936 -0.307,-1.438 0,-1.062 0.375,-1.953 1.127,-2.674 0.751,-0.725 1.625,-1.087 2.63,-1.087 0.499,0 0.977,0.1 1.414,0.291 0.444,0.191 0.833,0.454 1.175,0.796 0.335,0.338 0.608,0.737 0.813,1.195 0.21,0.455 0.313,0.95 0.313,1.479 z m -27.814,17.302 -3.586,3.586 -7.555,-7.599 -7.603,7.599 -3.586,-3.586 7.596,-7.555 -7.507,-7.551 3.593,-3.59 7.507,7.552 7.555,-7.552 3.586,3.59 -7.603,7.551 7.603,7.555 z m 0,-38.237 h -8.805 v 8.798 H 30.01 v -8.798 h -8.798 v -4.73 h 8.798 v -8.801 h 4.727 v 8.801 h 8.805 v 4.73 z m 27.5,40.611 c -0.205,0.443 -0.471,0.84 -0.792,1.195 -0.328,0.354 -0.71,0.639 -1.154,0.86 -0.437,0.223 -0.909,0.331 -1.414,0.331 -0.526,0 -1.025,-0.103 -1.476,-0.307 -0.465,-0.205 -0.861,-0.479 -1.195,-0.82 -0.342,-0.338 -0.615,-0.734 -0.82,-1.191 -0.205,-0.458 -0.307,-0.923 -0.307,-1.394 0,-0.533 0.102,-1.018 0.307,-1.459 0.205,-0.443 0.478,-0.833 0.82,-1.171 0.334,-0.338 0.73,-0.604 1.195,-0.799 0.451,-0.188 0.936,-0.284 1.435,-0.284 0.499,0 0.977,0.096 1.414,0.284 0.444,0.194 0.833,0.461 1.175,0.799 0.335,0.338 0.608,0.728 0.813,1.171 0.212,0.441 0.314,0.926 0.314,1.459 -0.001,0.441 -0.104,0.886 -0.315,1.326 z m 7.739,-8.136 h -22.33 v -4.729 h 22.33 v 4.729 z" /><path
         inkscape:connector-curvature="0"
         id="path8"
         d="M 86.95,5.002 H 13.043 c -4.385,0 -7.944,3.616 -7.944,8.009 v 74.04 c 0,4.396 3.559,7.947 7.951,7.947 h 73.907 c 4.386,0 7.944,-3.552 7.944,-7.947 V 12.945 c 0,-4.391 -3.559,-7.943 -7.951,-7.943 z m -1.011,79.405 c 0,0.447 -0.362,0.878 -0.812,0.878 H 14.88 c -0.458,0 -0.82,-0.373 -0.82,-0.816 v -68.88 c 0,-0.444 0.369,-0.878 0.82,-0.878 h 70.24 c 0.458,0 0.819,0.372 0.819,0.82 v 68.876 z" /><polygon
         id="polygon10"
         points="43.542,58.396 39.956,54.807 32.401,62.358 24.894,54.807 21.301,58.396 28.808,65.947 21.212,73.502 24.798,77.088 32.401,69.489 39.956,77.088 43.542,73.502 35.939,65.947 " /><rect
         id="rect12"
         height="5.967"
         width="16.08"
         y="30.23"
         x="59.580002" /><polygon
         id="polygon14"
         points="34.737,30.534 34.737,21.733 30.01,21.733 30.01,30.534 21.212,30.534 21.212,35.265 30.01,35.265 30.01,44.062 34.737,44.062 34.737,35.265 43.542,35.265 43.542,30.534 " /><path
         inkscape:connector-curvature="0"
         id="path16"
         d="m 70.229,71.921 c -0.341,-0.338 -0.731,-0.604 -1.175,-0.799 -0.437,-0.188 -0.915,-0.284 -1.414,-0.284 -0.499,0 -0.984,0.096 -1.435,0.284 -0.465,0.194 -0.861,0.461 -1.195,0.799 -0.342,0.338 -0.615,0.728 -0.82,1.171 -0.205,0.441 -0.307,0.926 -0.307,1.459 0,0.471 0.102,0.936 0.307,1.394 0.205,0.457 0.478,0.854 0.82,1.191 0.334,0.342 0.73,0.615 1.195,0.82 0.451,0.204 0.949,0.307 1.476,0.307 0.505,0 0.977,-0.108 1.414,-0.331 0.444,-0.222 0.827,-0.506 1.154,-0.86 0.321,-0.355 0.587,-0.752 0.792,-1.195 0.212,-0.44 0.314,-0.885 0.314,-1.325 0,-0.533 -0.103,-1.018 -0.314,-1.459 -0.205,-0.445 -0.478,-0.834 -0.812,-1.172 z" /><path
         inkscape:connector-curvature="0"
         id="path18"
         d="m 69.054,52.73 c -0.437,-0.191 -0.915,-0.291 -1.414,-0.291 -1.004,0 -1.879,0.362 -2.63,1.087 -0.751,0.721 -1.127,1.611 -1.127,2.674 0,0.502 0.102,0.98 0.307,1.438 0.205,0.458 0.478,0.854 0.82,1.192 0.334,0.342 0.73,0.604 1.195,0.799 0.451,0.188 0.949,0.287 1.476,0.287 0.505,0 0.977,-0.105 1.414,-0.311 0.444,-0.205 0.827,-0.485 1.154,-0.84 0.321,-0.355 0.587,-0.752 0.792,-1.196 0.212,-0.44 0.314,-0.897 0.314,-1.369 0,-0.529 -0.103,-1.024 -0.314,-1.479 -0.205,-0.458 -0.478,-0.857 -0.813,-1.195 -0.341,-0.341 -0.73,-0.604 -1.174,-0.796 z" /><rect
         id="rect20"
         height="4.7290001"
         width="22.33"
         y="63.011002"
         x="56.451" /></g></g></svg>