<?xml version="1.0" encoding="UTF-8" standalone="no"?>
<svg
   xmlns:dc="http://purl.org/dc/elements/1.1/"
   xmlns:cc="http://creativecommons.org/ns#"
   xmlns:rdf="http://www.w3.org/1999/02/22-rdf-syntax-ns#"
   xmlns:svg="http://www.w3.org/2000/svg"
   xmlns="http://www.w3.org/2000/svg"
   xmlns:sodipodi="http://sodipodi.sourceforge.net/DTD/sodipodi-0.dtd"
   xmlns:inkscape="http://www.inkscape.org/namespaces/inkscape"
   version="1.1"
   x="0px"
   y="0px"
   viewBox="0 0 55 55"
   xml:space="preserve"
   id="svg2"
   inkscape:version="0.48.4 r9939"
   width="100%"
   height="100%"
   sodipodi:docname="noun_17685_cc.svg"><defs
     id="defs18" /><sodipodi:namedview
     pagecolor="#ffffff"
     bordercolor="#666666"
     borderopacity="1"
     objecttolerance="10"
     gridtolerance="10"
     guidetolerance="10"
     inkscape:pageopacity="0"
     inkscape:pageshadow="2"
     inkscape:window-width="1162"
     inkscape:window-height="687"
     id="namedview16"
     showgrid="false"
     fit-margin-top="0"
     fit-margin-left="0"
     fit-margin-right="0"
     fit-margin-bottom="0"
     inkscape:zoom="1.888"
     inkscape:cx="108.22034"
     inkscape:cy="-1.8961868"
     inkscape:window-x="0"
     inkscape:window-y="0"
     inkscape:window-maximized="0"
     inkscape:current-layer="svg2" /><rect
     style="fill:#27de5f;fill-opacity:1;stroke:#2f74d0;stroke-width:0;stroke-linecap:round;stroke-linejoin:round;stroke-miterlimit:4;stroke-opacity:1;stroke-dasharray:none;stroke-dashoffset:0"
     id="rect2997"
     width="55"
     height="55"
     x="0"
     y="0" /><g
     id="g4"
     transform="matrix(0.3599972,0,0,0.3599972,8.9175115,9.9761948)"><path
       d="m 41.462,20.91 c -0.149,0.97 -0.271,2.024 -0.407,3.184 1.064,-0.391 2.119,-0.755 3.178,-1.106 0.296,-0.339 0.615,-0.664 0.928,-0.99 -0.983,-1.471 -1.863,-2.733 -2.634,-3.756 -0.651,0.222 -1.31,0.463 -1.966,0.729 -0.033,0.312 -0.053,0.645 -0.096,0.983 -0.646,0.449 -1.317,0.943 -1.994,1.464 -0.15,0.54 -0.287,1.081 -0.407,1.66 0.71,-0.026 1.442,-0.059 2.151,-0.078 0.42,-0.742 0.84,-1.433 1.247,-2.09 z"
       id="path6"
       inkscape:connector-curvature="0" /><path
       d="m 69.352,72.499 c -0.237,1.432 -0.523,2.786 -0.807,4.016 0.576,0.195 1.146,0.365 1.699,0.541 0.947,-1.497 1.875,-3.157 2.784,-4.902 -0.026,-0.716 -0.082,-1.427 -0.144,-2.175 -1.161,0.859 -2.347,1.699 -3.532,2.52 z"
       id="path8"
       inkscape:connector-curvature="0" /><path
       d="M 50,0 C 22.389,0 0,22.388 0,49.999 c 0,27.616 22.389,49.999 50,49.999 27.617,0 50,-22.383 50,-49.999 C 100,22.388 77.617,0 50,0 z m -0.088,93.331 c -12.037,0 -22.928,-4.908 -30.782,-12.845 0.99,-0.02 1.985,-0.039 3.008,-0.071 0.452,-1.836 1.055,-3.991 1.861,-6.445 C 21.38,72.661 18.847,71.268 16.546,69.823 16.097,68.71 15.699,67.577 15.306,66.412 13.532,64.791 11.913,63.138 10.491,61.516 9.563,61.248 8.723,60.975 7.959,60.689 7.094,57.272 6.579,53.703 6.579,50 c 0,-1.777 0.15,-3.535 0.352,-5.254 0.784,-0.931 1.712,-1.915 2.789,-2.897 1.469,-1.179 3.19,-2.402 5.086,-3.62 -0.941,-3.495 -1.639,-6.705 -2.221,-9.636 -0.232,0.184 -0.434,0.366 -0.658,0.562 1.498,-2.709 3.285,-5.223 5.304,-7.533 0.201,2.122 0.465,4.407 0.934,7.045 0.642,0.091 1.312,0.182 1.996,0.279 0.318,-1.322 0.657,-2.617 1.016,-3.815 0.562,-0.339 1.133,-0.671 1.692,-0.996 0.149,-0.437 0.306,-0.872 0.462,-1.296 0.765,-0.853 1.529,-1.673 2.314,-2.428 -0.156,-0.508 -0.29,-0.982 -0.427,-1.451 -0.4,-0.886 -0.739,-1.699 -1.022,-2.448 -0.508,-0.052 -1.002,-0.13 -1.503,-0.202 7.441,-6.016 16.908,-9.642 27.221,-9.642 10.107,0 19.391,3.496 26.765,9.304 -2.438,0.117 -7.95,0.318 -12.507,0.462 -3.268,-0.273 -6.52,-0.488 -9.612,-0.638 -1.234,0.182 -2.514,0.41 -3.854,0.677 -0.521,0.488 -1.09,1.106 -1.686,1.862 -0.69,0.279 -1.387,0.592 -2.119,0.924 -0.095,0.703 -0.183,1.491 -0.276,2.369 0.4,0.17 0.784,0.332 1.191,0.508 0.859,-0.377 1.712,-0.709 2.552,-1.021 0.4,0.865 0.819,1.803 1.239,2.825 0.752,-0.228 1.475,-0.43 2.214,-0.651 0.446,-0.97 0.872,-1.888 1.286,-2.714 -0.503,-0.345 -0.996,-0.671 -1.47,-0.97 0.379,-0.573 0.767,-1.088 1.117,-1.562 0.44,-0.293 0.873,-0.573 1.293,-0.847 0.3,0.039 0.588,0.059 0.896,0.078 -0.219,0.332 -0.414,0.638 -0.651,1.042 -0.29,0.11 -0.596,0.221 -0.892,0.357 0.127,0.163 0.27,0.332 0.396,0.502 -0.013,0.032 -0.025,0.052 -0.039,0.098 0.033,0 0.082,0 0.122,0.006 0.324,0.417 0.663,0.859 1.001,1.335 0.821,-0.144 1.612,-0.286 2.413,-0.403 0.303,0.228 0.621,0.448 0.947,0.683 -0.889,0.17 -1.768,0.346 -2.676,0.527 0.256,0.547 0.515,1.094 0.771,1.673 -0.623,-0.162 -1.236,-0.332 -1.869,-0.494 -0.371,0.833 -0.771,1.705 -1.191,2.656 -1.631,-0.059 -3.291,-0.117 -4.922,-0.144 -0.283,-0.671 -0.582,-1.315 -0.853,-1.921 -0.371,0.378 -0.758,0.749 -1.152,1.146 0.131,0.416 0.239,0.853 0.346,1.289 -0.573,0.025 -1.186,0.078 -1.759,0.11 -0.752,0.808 -1.503,1.641 -2.274,2.493 -1.349,0.384 -2.702,0.789 -4.058,1.205 0.291,0.625 0.604,1.282 0.922,1.953 0.521,0.82 1.048,1.66 1.598,2.52 -1.822,-0.091 -3.609,-0.176 -5.377,-0.247 -0.014,1.627 -0.006,3.326 0.008,5.077 1.408,0.188 2.831,0.378 4.272,0.593 0.968,-1.484 1.957,-2.923 2.923,-4.316 1.355,-0.65 2.71,-1.282 4.058,-1.914 0.576,0.625 1.158,1.244 1.747,1.869 0.797,1.016 1.625,2.069 2.458,3.117 0.589,-0.664 1.171,-1.302 1.731,-1.945 -1.13,-0.729 -2.26,-1.459 -3.393,-2.162 C 51.512,33.315 51.456,32.651 51.4,32 c 0.545,0.24 1.079,0.494 1.622,0.742 0.886,0.657 1.801,1.328 2.714,2.012 -0.041,0.67 -0.067,1.354 -0.109,2.044 0.706,0.826 1.396,1.666 2.086,2.513 0.291,-1.062 0.59,-2.097 0.867,-3.118 0.373,0.176 0.732,0.352 1.09,0.527 0.514,0.826 1.029,1.666 1.543,2.513 1.523,0.267 3.034,0.54 4.531,0.813 -0.225,0.813 -0.433,1.634 -0.664,2.448 -0.533,0.338 -1.104,0.678 -1.666,1.01 -2.185,-0.594 -4.421,-1.186 -6.66,-1.771 -0.563,0.787 -1.127,1.569 -1.681,2.351 -1.49,-0.957 -2.965,-1.928 -4.456,-2.872 -0.23,-0.938 -0.445,-1.875 -0.677,-2.799 -3.587,0.599 -7.211,1.243 -10.759,1.888 -1.876,2.233 -3.744,4.479 -5.561,6.745 -0.352,3.027 -0.648,6.073 -0.893,9.049 1.855,1.856 3.756,3.705 5.688,5.521 3.317,-0.156 6.745,-0.332 10.176,-0.541 1.022,3.066 2.038,6.01 3.007,8.711 -0.394,1.543 -0.765,3.009 -1.139,4.389 1.523,2.987 2.926,5.514 4.104,7.343 1.563,-0.176 3.147,-0.357 4.733,-0.56 1.889,-1.816 3.887,-4.147 5.889,-6.854 0.989,-0.645 1.965,-1.303 2.952,-1.979 0.007,-1.896 -0.032,-3.952 -0.12,-6.12 1.773,-1.53 3.52,-3.118 5.229,-4.694 0.621,-1.861 1.21,-3.769 1.756,-5.664 -1.609,0.847 -3.26,1.707 -4.973,2.56 -1.547,-4.037 -3.328,-8.288 -5.182,-12.507 0.381,-0.071 0.745,-0.117 1.119,-0.183 1.807,3.549 3.512,7.109 5.078,10.527 3.269,-2.084 6.384,-4.167 9.192,-6.126 -0.947,-0.853 -1.943,-1.719 -2.972,-2.61 -0.752,0.423 -1.531,0.853 -2.327,1.282 -0.508,-1.315 -1.038,-2.637 -1.579,-3.945 0.346,-0.221 0.689,-0.423 1.028,-0.638 0.732,0.671 1.436,1.334 2.126,1.998 2.351,0.527 4.563,1.049 6.607,1.557 0.889,1.27 1.699,2.525 2.493,3.743 0.69,2.317 1.294,4.563 1.821,6.738 0.562,-0.735 1.09,-1.459 1.604,-2.182 0.042,-0.833 0.062,-1.68 0.081,-2.507 1.36,-1.393 2.574,-2.727 3.609,-3.971 0.17,0.612 0.297,1.205 0.446,1.811 C 92.542,74.562 73.441,93.331 49.912,93.331 z M 71.693,33.156 c 1.185,-0.605 2.33,-1.191 3.434,-1.758 0.081,0.573 0.149,1.159 0.215,1.752 -0.439,0.162 -0.886,0.332 -1.324,0.501 0.451,0.612 0.897,1.25 1.36,1.882 0.303,1.269 0.615,2.564 0.892,3.886 -1.097,-0.137 -2.221,-0.267 -3.362,-0.41 0.146,-0.788 0.297,-1.589 0.439,-2.369 -0.55,-1.185 -1.091,-2.357 -1.654,-3.484 z m -2.41,1.699 c -0.325,0.593 -0.664,1.205 -1.002,1.836 -0.941,-0.3 -1.911,-0.579 -2.864,-0.853 -1.279,0.169 -2.571,0.352 -3.899,0.527 -0.332,-0.566 -0.671,-1.113 -1.004,-1.667 0.658,-1.146 1.287,-2.285 1.912,-3.353 2.301,1.128 4.595,2.313 6.857,3.51 z"
       id="path10"
       inkscape:connector-curvature="0" /></g></svg>