<?xml version="1.0" encoding="UTF-8" standalone="no"?>
<svg
   xmlns:dc="http://purl.org/dc/elements/1.1/"
   xmlns:cc="http://creativecommons.org/ns#"
   xmlns:rdf="http://www.w3.org/1999/02/22-rdf-syntax-ns#"
   xmlns:svg="http://www.w3.org/2000/svg"
   xmlns="http://www.w3.org/2000/svg"
   xmlns:sodipodi="http://sodipodi.sourceforge.net/DTD/sodipodi-0.dtd"
   xmlns:inkscape="http://www.inkscape.org/namespaces/inkscape"
   version="1.1"
   x="0px"
   y="0px"
   viewBox="0 0 55 55"
   xml:space="preserve"
   id="svg2"
   inkscape:version="0.48.4 r9939"
   width="100%"
   height="100%"
   sodipodi:docname="grammar.svg"><defs
     id="defs16" /><sodipodi:namedview
     pagecolor="#ffffff"
     bordercolor="#666666"
     borderopacity="1"
     objecttolerance="10"
     gridtolerance="10"
     guidetolerance="10"
     inkscape:pageopacity="0"
     inkscape:pageshadow="2"
     inkscape:window-width="1306"
     inkscape:window-height="762"
     id="namedview14"
     showgrid="false"
     inkscape:zoom="2.085965"
     inkscape:cx="-76.778083"
     inkscape:cy="6.5133657"
     inkscape:window-x="0"
     inkscape:window-y="0"
     inkscape:window-maximized="0"
     inkscape:current-layer="svg2" /><rect
     style="fill:#2f74d0;fill-opacity:1;stroke:#2f74d0;stroke-width:0;stroke-linecap:round;stroke-linejoin:round;stroke-miterlimit:4;stroke-opacity:1;stroke-dasharray:none;stroke-dashoffset:0"
     id="rect2995"
     width="55"
     height="55"
     x="-8.3446503e-007"
     y="-1.3113022e-006" /><g
     id="g4"
     transform="matrix(2.5699785,0,0,2.5699785,7.5747373,6.7908161)"><path
       d="M 7,4 C 7,2.9 6.1,2 5,2 H 3 C 1.9,2 1,2.9 1,4 v 3 c 0,1.1 0.9,2 2,2 h 1 c 0.545,0 0.983,0.437 0.996,0.979 v 0.058 c 0,1.632 -1.344,2.96 -2.996,2.96 -0.555,0 -1.004,0.449 -1.004,1.004 0,0.555 0.449,1.003 1.004,1.003 2.759,0 5.004,-2.229 5.004,-4.968 L 7,4 z"
       id="path6"
       inkscape:connector-curvature="0" /><path
       d="M 15,4 C 15,2.9 14.1,2 13,2 H 11 C 9.9,2 9,2.9 9,4 v 3 c 0,1.1 0.9,2 2,2 h 1 c 0.546,0 0.985,0.438 0.996,0.98 v 0.056 c 0,1.632 -1.345,2.96 -2.996,2.96 -0.555,0 -1.004,0.449 -1.004,1.004 0,0.555 0.45,1.004 1.004,1.004 2.76,0 5.004,-2.229 5.004,-4.968 L 15,4 z"
       id="path8"
       inkscape:connector-curvature="0" /></g></svg>