<?xml version="1.0" encoding="UTF-8" standalone="no"?>
<svg
   xmlns:dc="http://purl.org/dc/elements/1.1/"
   xmlns:cc="http://creativecommons.org/ns#"
   xmlns:rdf="http://www.w3.org/1999/02/22-rdf-syntax-ns#"
   xmlns:svg="http://www.w3.org/2000/svg"
   xmlns="http://www.w3.org/2000/svg"
   xmlns:sodipodi="http://sodipodi.sourceforge.net/DTD/sodipodi-0.dtd"
   xmlns:inkscape="http://www.inkscape.org/namespaces/inkscape"
   version="1.0"
   x="0px"
   y="0px"
   viewBox="0 0 54.999999 54.999999"
   xml:space="preserve"
   id="svg2"
   inkscape:version="0.48.4 r9939"
   width="100%"
   height="100%"
   sodipodi:docname="institution.svg"><defs
     id="defs20" /><sodipodi:namedview
     pagecolor="#ffffff"
     bordercolor="#666666"
     borderopacity="1"
     objecttolerance="10"
     gridtolerance="10"
     guidetolerance="10"
     inkscape:pageopacity="0"
     inkscape:pageshadow="2"
     inkscape:window-width="1127"
     inkscape:window-height="710"
     id="namedview18"
     showgrid="false"
     fit-margin-top="0"
     fit-margin-left="0"
     fit-margin-right="0"
     fit-margin-bottom="0"
     inkscape:zoom="3.2090535"
     inkscape:cx="77.580701"
     inkscape:cy="-3.3251198"
     inkscape:window-x="0"
     inkscape:window-y="0"
     inkscape:window-maximized="0"
     inkscape:current-layer="svg2" /><rect
     style="fill:#dd75dd;fill-opacity:1;stroke:#dd75dd;stroke-width:0;stroke-linecap:round;stroke-linejoin:miter;stroke-miterlimit:4;stroke-opacity:1;stroke-dasharray:none;stroke-dashoffset:0"
     id="rect2999"
     width="55"
     height="55"
     x="-2.7464762e-007"
     y="0" /><g
     id="g4"
     transform="matrix(1.730736,0,0,1.730736,6.7067374,4.7747803)"><path
       d="m 5,20 v -8 c 0.551,0 1,-0.449 1,-1 H 6 V 10 H 4 3 1 v 1 c 0,0.551 0.449,1 1,1 v 8 h 3 z"
       id="path6"
       inkscape:connector-curvature="0" /><path
       d="m 11,20 v -8 c 0.551,0 1,-0.449 1,-1 h 0 V 10 H 10 9 7 v 1 c 0,0.551 0.449,1 1,1 v 8 h 3 z"
       id="path8"
       inkscape:connector-curvature="0" /><path
       d="m 17,20 v -8 c 0.551,0 1,-0.449 1,-1 h 0 v -1 h -2 -1 -2 v 1 c 0,0.551 0.449,1 1,1 v 8 h 3 z"
       id="path10"
       inkscape:connector-curvature="0" /><path
       d="m 23,20 v -8 c 0.551,0 1,-0.449 1,-1 h 0 v -1 h -2 -1 -2 v 1 c 0,0.551 0.449,1 1,1 v 8 h 3 z"
       id="path12"
       inkscape:connector-curvature="0" /><path
       d="m 24,23 h -1 c 0,-0.25 0,-2 0,-2 H 2 v 2 H 1 c -0.551,0 -1,0.449 -1,1 v 1 c 0,0.551 0.449,1 1,1 h 23 c 0.551,0 1,-0.449 1,-1 v -1 c 0,-0.55 -0.449,-1 -1,-1 z"
       id="path14"
       inkscape:connector-curvature="0" /><path
       d="M 0.961,9 H 24.02 c 0.008,0 0.016,0 0.02,0 C 24.57,9 25,8.553 25,8 25,7.58 24.752,7.221 24.399,7.072 h 0 L 12.975,0.136 c -0.299,-0.182 -0.67,-0.182 -0.969,0 l -11.529,7 C 0.102,7.364 -0.08,7.825 0.033,8.261 0.146,8.697 0.526,9 0.961,9 z M 12.5,3.351 c 1.188,0 2.149,0.962 2.149,2.149 0,1.188 -0.961,2.149 -2.149,2.149 -1.188,0 -2.149,-0.961 -2.149,-2.149 0,-1.188 0.961,-2.149 2.149,-2.149 z"
       id="path16"
       inkscape:connector-curvature="0" /></g></svg>