<?xml version="1.0" encoding="UTF-8" standalone="no"?>
<!DOCTYPE svg PUBLIC "-//W3C//DTD SVG 1.1//EN" "http://www.w3.org/Graphics/SVG/1.1/DTD/svg11.dtd" [
	<!ENTITY stroke_color "#000000">
	<!ENTITY fill_color "#999999">
]>
<svg
   xmlns:dc="http://purl.org/dc/elements/1.1/"
   xmlns:cc="http://creativecommons.org/ns#"
   xmlns:rdf="http://www.w3.org/1999/02/22-rdf-syntax-ns#"
   xmlns:svg="http://www.w3.org/2000/svg"
   xmlns="http://www.w3.org/2000/svg"
   xmlns:sodipodi="http://sodipodi.sourceforge.net/DTD/sodipodi-0.dtd"
   xmlns:inkscape="http://www.inkscape.org/namespaces/inkscape"
   version="1.1"
   x="0px"
   y="0px"
   viewBox="0 0 55 55"
   enable-background="new 0 0 100 100"
   xml:space="preserve"
   id="svg2"
   inkscape:version="0.48.4 r9939"
   width="100%"
   height="100%"
   sodipodi:docname="tree.svg"><defs
     id="defs12" /><sodipodi:namedview
     pagecolor="#ffffff"
     bordercolor="#666666"
     borderopacity="1"
     objecttolerance="10"
     gridtolerance="10"
     guidetolerance="10"
     inkscape:pageopacity="0"
     inkscape:pageshadow="2"
     inkscape:window-width="1600"
     inkscape:window-height="837"
     id="namedview10"
     showgrid="false"
     inkscape:zoom="3.776"
     inkscape:cx="-13.715927"
     inkscape:cy="42.613311"
     inkscape:window-x="-8"
     inkscape:window-y="-8"
     inkscape:window-maximized="1"
     inkscape:current-layer="svg2" /><path
     style="fill:&fill_color;;stroke:&stroke_color;;"
     d="m 49.676329,26.695962 c 0.02203,-0.09441 0.03462,-0.191957 0.03462,-0.291082 0,-0.922548 -1.008561,-1.669397 -2.253134,-1.669397 -0.449473,0 -0.867478,0.09808 -1.219399,0.265908 -0.580067,-0.161013 -1.190553,-0.281642 -1.823592,-0.35769 -0.549647,-0.6215 -1.506285,-1.032687 -2.594566,-1.032687 -1.38251,0 -2.553133,0.663458 -2.945963,1.578138 -2.176037,0.738458 -3.850678,2.062227 -4.576548,3.669735 h 7.224086 c -0.0016,0.001 -0.0026,0.0016 -0.0037,0.0031 -0.520277,0.421152 -1.901738,1.127616 -5.31081,1.127616 -2.09789,0 -3.84386,0.707514 -5.190706,2.10366 -0.594752,0.61678 -1.062581,1.323769 -1.43181,2.063275 -0.486186,-2.48128 -0.677094,-6.012554 1.000694,-6.695942 4.840358,-1.972017 8.190165,-5.779688 8.584044,-9.653443 h 14.481238 c -1.302791,-2.885077 -4.219907,-5.288211 -8.032299,-6.719497 0.140559,-0.247026 0.218181,-0.511885 0.218181,-0.787233 0,-1.3363564 -1.793172,-2.4193924 -4.005398,-2.4193924 -0.413284,0 -0.811883,0.03776 -1.186881,0.108041 -0.710661,-1.205238 -2.458728,-1.923766 -4.385116,-1.679361 -2.377435,0.301571 -4.126026,1.954185 -3.905748,3.6917634 0.0084,0.06346 0.01941,0.125873 0.03304,0.187761 -2.779181,0.593178 -5.249971,1.662053 -7.207828,3.065542 -0.0073,-0.0016 -0.01416,-0.0031 -0.0215,-0.0052 -0.23339,-0.316782 -0.658213,-0.529193 -1.144924,-0.529193 -0.298425,0 -0.572724,0.08077 -0.7951,0.215033 -0.63199,-0.06661 -1.279189,-0.101747 -1.938451,-0.101747 -1.637928,0 -3.201906,0.213985 -4.636863,0.60157 -0.315208,-0.136888 -0.674996,-0.214509 -1.056812,-0.214509 -1.112931,0 -2.036527,0.657688 -2.219044,1.521495 -0.937757,0.518179 -1.763277,1.126042 -2.449811,1.805234 -0.640906,-0.308914 -1.4145027,-0.489857 -2.2484147,-0.489857 -2.212225,0 -4.005397,1.269748 -4.005397,2.836873 0,0.371326 0.101748,0.72587 0.285313,1.051043 -1.517299,0.976043 -2.668517,2.213274 -3.29736,3.606798 h 8.053278 c 0.07762,0.468354 0.3550677,1.323769 1.3311107,2.114674 1.401391,1.13391 3.741064,1.709781 6.955032,1.709781 1.376741,0 2.458203,0.424822 3.305227,1.299643 2.181806,2.253659 2.065373,6.650313 2.064324,6.692271 l 0.0068,5.24e-4 -0.993876,14.707786 h 0.0021 c 0,10e-4 -5.24e-4,0.0016 -5.24e-4,0.0026 0,0.527619 2.079009,0.955589 4.643681,0.955589 2.564146,0 4.643156,-0.42797 4.643156,-0.955589 0,-0.001 -5.25e-4,-0.0016 -5.25e-4,-0.0026 h 5.25e-4 l -0.70594,-11.355357 c 0.189859,-1.481635 0.681814,-3.511344 1.948415,-4.819379 0.847024,-0.87482 1.928486,-1.300168 3.305751,-1.300168 3.213444,0 5.553117,-0.574822 6.953983,-1.70978 0.923072,-0.746849 1.222021,-1.551915 1.316951,-2.033381 H 51.42543 C 51.060937,28.054346 50.458842,27.321133 49.676329,26.695962 z M 22.444136,20.443724 c -0.80087,-0.608389 -1.731284,-1.136532 -2.761873,-1.562929 h 2.527958 c 0.04563,0.547025 0.123776,1.068351 0.233915,1.562929 z m 3.237045,6.87164 c -0.2979,0.84545 -0.475172,1.815724 -0.530766,2.896138 -0.415382,-1.184784 -1.037931,-2.375861 -1.970968,-3.342988 -1.346846,-1.396147 -3.092815,-2.104185 -5.190181,-2.104185 -2.895614,0 -4.332669,-0.505591 -5.028644,-0.92989 -0.162062,-0.0986 -0.284789,-0.194055 -0.379194,-0.281117 h 11.221617 c 0.222901,0.305768 0.467305,0.591081 0.734786,0.856988 0.608913,0.604193 1.270273,1.038981 1.914325,1.352615 -0.310488,0.46311 -0.569577,0.981288 -0.770975,1.552439 z m 2.30768,-3.105402 c -0.653493,-0.226048 -1.386706,-0.603144 -2.02394,-1.235658 -0.971323,-0.965029 -1.547719,-2.338099 -1.721319,-4.092984 h 9.056069 c -0.166258,-0.369229 -0.369753,-0.727444 -0.605242,-1.073071 h 2.315023 c -0.184615,0.866953 -0.668179,1.788451 -1.409783,2.663272 -1.115553,1.317475 -2.69474,2.41677 -4.566583,3.179353 -0.372376,0.151048 -0.720626,0.339334 -1.044225,0.559088 z"
     id="path4"
     inkscape:connector-curvature="0" /></svg>